<mxfile host="app.diagrams.net" modified="2022-05-20T22:00:59.437Z" agent="5.0 (Windows NT 10.0; Win64; x64) AppleWebKit/537.36 (KHTML, like Gecko) Chrome/101.0.4951.64 Safari/537.36 Edg/101.0.1210.47" etag="8GGdQ60KxiRLUVTnHaUF" version="18.1.1" type="github">
  <diagram name="Page-1" id="822b0af5-4adb-64df-f703-e8dfc1f81529">
    <mxGraphModel dx="2051" dy="1477" grid="1" gridSize="10" guides="1" tooltips="1" connect="1" arrows="1" fold="1" page="1" pageScale="1" pageWidth="1100" pageHeight="850" background="none" math="0" shadow="0">
      <root>
        <mxCell id="0" />
        <mxCell id="1" parent="0" />
        <mxCell id="fcotVjbgfwCwU61ofQpz-14" style="edgeStyle=orthogonalEdgeStyle;rounded=0;orthogonalLoop=1;jettySize=auto;html=1;entryX=0.742;entryY=0.057;entryDx=0;entryDy=0;entryPerimeter=0;" edge="1" parent="1" source="7d933b09d9755ecc-21" target="7d933b09d9755ecc-38">
          <mxGeometry relative="1" as="geometry" />
        </mxCell>
        <mxCell id="7d933b09d9755ecc-21" value="" style="verticalLabelPosition=bottom;aspect=fixed;html=1;verticalAlign=top;strokeColor=none;shape=mxgraph.citrix.tower_server;rounded=0;shadow=0;comic=0;fontFamily=Verdana;" parent="1" vertex="1">
          <mxGeometry x="1930" y="90" width="65" height="85" as="geometry" />
        </mxCell>
        <mxCell id="7d933b09d9755ecc-34" value="Merlin Server&lt;br&gt;Evil NGINX" style="verticalLabelPosition=bottom;aspect=fixed;html=1;verticalAlign=top;strokeColor=none;shape=mxgraph.citrix.tower_server;rounded=0;shadow=0;comic=0;fontFamily=Verdana;" parent="1" vertex="1">
          <mxGeometry x="170" y="600" width="65" height="85" as="geometry" />
        </mxCell>
        <mxCell id="fcotVjbgfwCwU61ofQpz-15" value="MSQL OUT OF BAND EXFIL" style="edgeStyle=orthogonalEdgeStyle;rounded=0;orthogonalLoop=1;jettySize=auto;html=1;entryX=0.927;entryY=1.38;entryDx=0;entryDy=0;entryPerimeter=0;" edge="1" parent="1" source="7d933b09d9755ecc-38" target="fcotVjbgfwCwU61ofQpz-13">
          <mxGeometry relative="1" as="geometry">
            <Array as="points">
              <mxPoint x="760" y="558" />
              <mxPoint x="760" y="698" />
            </Array>
          </mxGeometry>
        </mxCell>
        <mxCell id="7d933b09d9755ecc-38" value="SQL Database" style="verticalLabelPosition=bottom;aspect=fixed;html=1;verticalAlign=top;strokeColor=none;shape=mxgraph.citrix.tower_server;rounded=0;shadow=0;comic=0;fontFamily=Verdana;" parent="1" vertex="1">
          <mxGeometry x="1850" y="515" width="65" height="85" as="geometry" />
        </mxCell>
        <mxCell id="7d933b09d9755ecc-39" value="302 to SET Login" style="edgeStyle=none;rounded=0;html=1;exitX=1.07;exitY=0.599;labelBackgroundColor=none;startFill=0;endArrow=block;endFill=1;strokeColor=#0000FF;strokeWidth=1;fontFamily=Verdana;fontSize=12;exitDx=0;exitDy=0;exitPerimeter=0;entryX=-0.089;entryY=0.733;entryDx=0;entryDy=0;entryPerimeter=0;" parent="1" source="7d933b09d9755ecc-34" target="fcotVjbgfwCwU61ofQpz-4" edge="1">
          <mxGeometry relative="1" as="geometry">
            <mxPoint x="697.9999999999964" y="755.5" as="sourcePoint" />
            <mxPoint x="1010.7180655134225" y="559.1771126902859" as="targetPoint" />
          </mxGeometry>
        </mxCell>
        <mxCell id="7d933b09d9755ecc-43" value="RCE" style="edgeStyle=none;rounded=0;html=1;labelBackgroundColor=none;startFill=0;endArrow=block;endFill=1;strokeWidth=1;fontFamily=Verdana;fontSize=12;exitX=0.865;exitY=0.493;exitDx=0;exitDy=0;exitPerimeter=0;" parent="1" source="fcotVjbgfwCwU61ofQpz-2" edge="1">
          <mxGeometry relative="1" as="geometry">
            <mxPoint x="470" y="310" as="sourcePoint" />
            <mxPoint x="870" y="240" as="targetPoint" />
          </mxGeometry>
        </mxCell>
        <mxCell id="fcotVjbgfwCwU61ofQpz-1" value="RED SPACE" style="endArrow=none;dashed=1;html=1;rounded=0;" edge="1" parent="1">
          <mxGeometry width="50" height="50" relative="1" as="geometry">
            <mxPoint x="420" y="750" as="sourcePoint" />
            <mxPoint x="420" y="80" as="targetPoint" />
          </mxGeometry>
        </mxCell>
        <mxCell id="fcotVjbgfwCwU61ofQpz-2" value="" style="verticalLabelPosition=bottom;aspect=fixed;html=1;verticalAlign=top;strokeColor=none;shape=mxgraph.citrix.tower_server;rounded=0;shadow=0;comic=0;fontFamily=Verdana;" vertex="1" parent="1">
          <mxGeometry x="170" y="225" width="65" height="85" as="geometry" />
        </mxCell>
        <mxCell id="fcotVjbgfwCwU61ofQpz-3" value="Throw Catch" style="text;html=1;align=center;verticalAlign=middle;resizable=0;points=[];autosize=1;strokeColor=none;fillColor=none;" vertex="1" parent="1">
          <mxGeometry x="162.5" y="80" width="80" height="20" as="geometry" />
        </mxCell>
        <mxCell id="fcotVjbgfwCwU61ofQpz-4" value="Redirected Front" style="verticalLabelPosition=bottom;aspect=fixed;html=1;verticalAlign=top;strokeColor=none;shape=mxgraph.citrix.tower_server;rounded=0;shadow=0;comic=0;fontFamily=Verdana;" vertex="1" parent="1">
          <mxGeometry x="580" y="467.5" width="65" height="85" as="geometry" />
        </mxCell>
        <mxCell id="fcotVjbgfwCwU61ofQpz-5" value="BLUE SPACE" style="endArrow=none;dashed=1;html=1;rounded=0;" edge="1" parent="1">
          <mxGeometry width="50" height="50" relative="1" as="geometry">
            <mxPoint x="1310" y="720" as="sourcePoint" />
            <mxPoint x="1310" y="50" as="targetPoint" />
          </mxGeometry>
        </mxCell>
        <mxCell id="fcotVjbgfwCwU61ofQpz-10" style="edgeStyle=orthogonalEdgeStyle;rounded=0;orthogonalLoop=1;jettySize=auto;html=1;entryX=0.195;entryY=0.34;entryDx=0;entryDy=0;entryPerimeter=0;" edge="1" parent="1" source="fcotVjbgfwCwU61ofQpz-6" target="7d933b09d9755ecc-21">
          <mxGeometry relative="1" as="geometry" />
        </mxCell>
        <mxCell id="fcotVjbgfwCwU61ofQpz-6" value="Shared Red Team Proxy" style="verticalLabelPosition=bottom;aspect=fixed;html=1;verticalAlign=top;strokeColor=none;shape=mxgraph.citrix.tower_server;rounded=0;shadow=0;comic=0;fontFamily=Verdana;" vertex="1" parent="1">
          <mxGeometry x="920" y="190" width="65" height="85" as="geometry" />
        </mxCell>
        <mxCell id="fcotVjbgfwCwU61ofQpz-11" style="edgeStyle=orthogonalEdgeStyle;rounded=0;orthogonalLoop=1;jettySize=auto;html=1;entryX=0.722;entryY=0.222;entryDx=0;entryDy=0;entryPerimeter=0;exitX=0.273;exitY=0.967;exitDx=0;exitDy=0;exitPerimeter=0;" edge="1" parent="1" source="7d933b09d9755ecc-21" target="7d933b09d9755ecc-34">
          <mxGeometry relative="1" as="geometry">
            <mxPoint x="1720" y="390" as="sourcePoint" />
            <mxPoint x="830" y="710" as="targetPoint" />
            <Array as="points">
              <mxPoint x="1180" y="272" />
              <mxPoint x="1180" y="380" />
              <mxPoint x="217" y="380" />
            </Array>
          </mxGeometry>
        </mxCell>
        <mxCell id="fcotVjbgfwCwU61ofQpz-16" style="edgeStyle=orthogonalEdgeStyle;rounded=0;orthogonalLoop=1;jettySize=auto;html=1;entryX=0.703;entryY=0.73;entryDx=0;entryDy=0;entryPerimeter=0;" edge="1" parent="1" source="fcotVjbgfwCwU61ofQpz-13" target="7d933b09d9755ecc-34">
          <mxGeometry relative="1" as="geometry" />
        </mxCell>
        <mxCell id="fcotVjbgfwCwU61ofQpz-13" value="AUthoritative Domain Server" style="text;html=1;align=center;verticalAlign=middle;resizable=0;points=[];autosize=1;strokeColor=none;fillColor=none;" vertex="1" parent="1">
          <mxGeometry x="505" y="670" width="170" height="20" as="geometry" />
        </mxCell>
      </root>
    </mxGraphModel>
  </diagram>
</mxfile>
